<svg width="495" height="495" viewBox="0 0 495 495" fill="none" xmlns="http://www.w3.org/2000/svg">
<g clip-path="url(#clip0_0_1)">
<mask id="path-1-outside-1_0_1" maskUnits="userSpaceOnUse" x="54.9986" y="40.2975" width="358.092" height="443.8" fill="black">
<rect fill="white" x="54.9986" y="40.2975" width="358.092" height="443.8"/>
<path d="M286.266 377.235L247.469 422.954C241.552 429.827 236.433 432.797 230.154 430.77C228.898 430.364 227.642 429.959 226.521 429.135C163.447 393.98 151.897 349.573 183.995 242.984L153.139 231.174C148.669 229.269 146.253 223.866 147.74 219.261L175.197 151.391C177.103 146.921 182.087 144.369 187.11 145.991L213.362 156.315C219.335 140.677 225.713 123.784 232.78 106.188C234.82 101.3 238.225 93.6164 249.11 97.1302L250.784 97.6708L328.689 126.981C335.67 129.697 337.668 134.965 335.37 142.081C328.857 159.393 321.654 177.408 314.722 194.585L343.067 205.584C347.672 207.071 350.088 212.473 348.467 217.497L321.009 285.367C319.239 289.418 314.673 292.105 310.068 290.618L309.231 290.348L282.007 280.173C269.709 318.268 265.407 348.775 281.259 362.675C285.188 366.255 289.671 369.551 288.185 374.156C287.914 374.993 287.09 376.114 286.266 377.235Z"/>
</mask>
<path d="M286.266 377.235L247.469 422.954C241.552 429.827 236.433 432.797 230.154 430.77C228.898 430.364 227.642 429.959 226.521 429.135C163.447 393.98 151.897 349.573 183.995 242.984L153.139 231.174C148.669 229.269 146.253 223.866 147.74 219.261L175.197 151.391C177.103 146.921 182.087 144.369 187.11 145.991L213.362 156.315C219.335 140.677 225.713 123.784 232.78 106.188C234.82 101.3 238.225 93.6164 249.11 97.1302L250.784 97.6708L328.689 126.981C335.67 129.697 337.668 134.965 335.37 142.081C328.857 159.393 321.654 177.408 314.722 194.585L343.067 205.584C347.672 207.071 350.088 212.473 348.467 217.497L321.009 285.367C319.239 289.418 314.673 292.105 310.068 290.618L309.231 290.348L282.007 280.173C269.709 318.268 265.407 348.775 281.259 362.675C285.188 366.255 289.671 369.551 288.185 374.156C287.914 374.993 287.09 376.114 286.266 377.235Z" fill="#EE5252"/>
<path d="M286.266 377.235L309.14 396.646L309.817 395.849L310.436 395.007L286.266 377.235ZM247.469 422.954L270.205 442.527L270.274 442.446L270.343 442.365L247.469 422.954ZM226.521 429.135L244.293 404.965L242.774 403.848L241.127 402.93L226.521 429.135ZM183.995 242.984L212.721 251.635L220.762 224.934L194.719 214.966L183.995 242.984ZM153.139 231.174L141.375 258.771L141.891 258.991L142.415 259.192L153.139 231.174ZM147.74 219.261L119.929 208.01L119.523 209.014L119.19 210.044L147.74 219.261ZM175.197 151.391L147.6 139.627L147.491 139.882L147.387 140.14L175.197 151.391ZM187.11 145.991L198.09 118.073L197.218 117.73L196.327 117.442L187.11 145.991ZM213.362 156.315L202.382 184.234L230.577 195.322L241.387 167.019L213.362 156.315ZM232.78 106.188L205.095 94.6328L205.017 94.8195L204.941 95.0072L232.78 106.188ZM250.784 97.6708L261.348 69.5923L260.68 69.3409L260.001 69.1216L250.784 97.6708ZM328.689 126.981L339.566 99.0223L339.409 98.9616L339.253 98.9026L328.689 126.981ZM335.37 142.081L363.449 152.645L363.7 151.977L363.919 151.298L335.37 142.081ZM314.722 194.585L286.903 183.357L275.524 211.553L303.869 222.552L314.722 194.585ZM343.067 205.584L332.214 233.552L333.024 233.866L333.851 234.133L343.067 205.584ZM348.467 217.497L376.277 228.748L376.683 227.744L377.016 226.713L348.467 217.497ZM321.009 285.367L348.499 297.379L348.664 297.001L348.819 296.618L321.009 285.367ZM309.231 290.348L298.728 318.449L299.366 318.688L300.015 318.897L309.231 290.348ZM282.007 280.173L292.511 252.071L263.103 241.08L253.458 270.956L282.007 280.173ZM281.259 362.675L301.463 340.499L301.253 340.307L301.038 340.119L281.259 362.675ZM286.266 377.235L263.392 357.824L224.595 403.544L247.469 422.954L270.343 442.365L309.14 396.646L286.266 377.235ZM247.469 422.954L224.734 403.381C222.765 405.668 223.232 404.468 225.949 403.162C227.584 402.376 229.86 401.632 232.605 401.442C235.351 401.252 237.686 401.677 239.37 402.221L230.154 430.77L220.937 459.319C231.45 462.713 242.251 461.898 251.946 457.237C260.272 453.234 266.256 447.113 270.205 442.527L247.469 422.954ZM230.154 430.77L239.37 402.221C238.547 401.955 239.111 402.119 239.843 402.424C240.755 402.805 242.413 403.583 244.293 404.965L226.521 429.135L208.75 453.305C214.396 457.456 220.325 459.121 220.937 459.319L230.154 430.77ZM226.521 429.135L241.127 402.93C213.911 387.761 202.933 373.721 198.776 355.997C193.939 335.375 196.896 304.186 212.721 251.635L183.995 242.984L155.27 234.334C138.996 288.371 131.679 332.68 140.361 369.698C149.723 409.613 176.058 435.354 211.916 455.34L226.521 429.135ZM183.995 242.984L194.719 214.966L163.863 203.156L153.139 231.174L142.415 259.192L173.272 271.002L183.995 242.984ZM153.139 231.174L164.902 203.576C170.329 205.89 173.777 209.962 175.549 213.888C177.316 217.801 178.062 222.986 176.289 228.478L147.74 219.261L119.19 210.044C113.001 229.218 122.443 250.701 141.375 258.771L153.139 231.174ZM147.74 219.261L175.55 230.512L203.008 162.642L175.197 151.391L147.387 140.14L119.929 208.01L147.74 219.261ZM175.197 151.391L202.795 163.154C198.873 172.355 188.251 177.884 177.894 174.54L187.11 145.991L196.327 117.442C175.922 110.855 155.332 121.486 147.6 139.627L175.197 151.391ZM187.11 145.991L176.131 173.91L202.382 184.234L213.362 156.315L224.341 128.396L198.09 118.073L187.11 145.991ZM213.362 156.315L241.387 167.019C247.414 151.241 253.673 134.663 260.618 117.37L232.78 106.188L204.941 95.0072C197.753 112.905 191.255 130.114 185.336 145.611L213.362 156.315ZM232.78 106.188L260.465 117.744C260.973 116.527 260.941 116.697 260.683 117.146C260.398 117.643 259.309 119.457 257.036 121.385C254.493 123.543 251.033 125.349 247.016 125.995C243.233 126.604 240.624 125.915 239.893 125.679L249.11 97.1302L258.326 68.581C244.631 64.1599 229.827 65.7859 218.221 75.6316C209.476 83.0499 205.793 92.9602 205.095 94.6328L232.78 106.188ZM249.11 97.1302L239.893 125.679L241.568 126.22L250.784 97.6708L260.001 69.1216L258.326 68.581L249.11 97.1302ZM250.784 97.6708L240.22 125.749L318.125 155.06L328.689 126.981L339.253 98.9026L261.348 69.5923L250.784 97.6708ZM328.689 126.981L317.811 154.94C316.05 154.254 310.835 151.506 307.91 144.641C305.201 138.284 306.64 133.427 306.821 132.865L335.37 142.081L363.919 151.298C366.398 143.619 367.987 132.57 363.108 121.12C358.013 109.164 348.309 102.424 339.566 99.0223L328.689 126.981ZM335.37 142.081L307.292 131.517C300.913 148.473 293.824 166.206 286.903 183.357L314.722 194.585L342.542 205.812C349.485 188.609 356.801 170.314 363.449 152.645L335.37 142.081ZM314.722 194.585L303.869 222.552L332.214 233.552L343.067 205.584L353.921 177.616L325.576 166.617L314.722 194.585ZM343.067 205.584L333.851 234.133C320.109 229.697 317.324 216.315 319.917 208.28L348.467 217.497L377.016 226.713C382.853 208.632 375.235 184.444 352.284 177.035L343.067 205.584ZM348.467 217.497L320.656 206.246L293.198 274.116L321.009 285.367L348.819 296.618L376.277 228.748L348.467 217.497ZM321.009 285.367L293.518 273.356C296.814 265.814 306.736 258.018 319.285 262.069L310.068 290.618L300.852 319.168C322.611 326.192 341.664 313.023 348.499 297.379L321.009 285.367ZM310.068 290.618L319.285 262.069L318.448 261.799L309.231 290.348L300.015 318.897L300.852 319.168L310.068 290.618ZM309.231 290.348L319.735 262.247L292.511 252.071L282.007 280.173L271.504 308.274L298.728 318.449L309.231 290.348ZM282.007 280.173L253.458 270.956C247.078 290.719 241.921 310.941 241.107 329.158C240.311 346.967 243.467 369.436 261.48 385.231L281.259 362.675L301.038 340.119C303.2 342.014 300.58 342.279 301.047 331.836C301.495 321.8 304.638 307.721 310.556 289.389L282.007 280.173ZM281.259 362.675L261.055 384.852C261.704 385.442 262.376 386.038 262.788 386.405C263.271 386.836 263.549 387.087 263.762 387.285C264.279 387.767 263.775 387.36 263.006 386.364C262.221 385.348 260.4 382.757 259.314 378.722C258.105 374.234 258.198 369.391 259.636 364.94L288.185 374.156L316.734 383.373C321.663 368.106 315.262 355.866 310.499 349.698C306.953 345.104 301.47 340.505 301.463 340.499L281.259 362.675ZM288.185 374.156L259.636 364.94C260.291 362.91 261.03 361.439 261.415 360.718C261.833 359.933 262.18 359.393 262.315 359.186C262.514 358.88 262.629 358.739 262.097 359.463L286.266 377.235L310.436 395.007C310.728 394.61 311.666 393.348 312.551 391.993C313.208 390.987 315.32 387.753 316.734 383.373L288.185 374.156Z" fill="black" mask="url(#path-1-outside-1_0_1)"/>
<path d="M286.266 377.235L247.469 422.954C241.552 429.827 236.433 432.797 230.154 430.77C228.898 430.364 227.642 429.959 226.521 429.135C163.447 393.98 151.897 349.573 183.995 242.984L153.139 231.174C148.669 229.269 146.253 223.866 147.74 219.261L175.197 151.391C177.103 146.921 182.087 144.369 187.11 145.991L213.362 156.315C219.335 140.677 225.713 123.784 232.78 106.188C234.82 101.3 238.225 93.6164 249.11 97.1302L250.784 97.6708L328.689 126.981C335.67 129.697 337.668 134.965 335.37 142.081C328.857 159.393 321.654 177.408 314.722 194.585L343.067 205.584C347.672 207.071 350.088 212.473 348.467 217.497L321.009 285.367C319.239 289.418 314.673 292.105 310.068 290.618L309.231 290.348L282.007 280.173C269.709 318.268 265.407 348.775 281.259 362.675C285.188 366.255 289.671 369.551 288.185 374.156C287.914 374.993 287.09 376.114 286.266 377.235Z" fill="#EE5252"/>
<mask id="mask0_0_1" style="mask-type:alpha" maskUnits="userSpaceOnUse" x="93" y="79" width="282" height="367">
<path d="M286.266 377.235L247.469 422.954C241.552 429.827 236.433 432.797 230.154 430.77C228.898 430.364 227.642 429.959 226.521 429.135C163.447 393.98 151.897 349.573 183.995 242.984L153.139 231.174C148.669 229.269 146.253 223.866 147.74 219.261L175.197 151.391C177.103 146.921 182.087 144.369 187.11 145.991L213.362 156.315C219.335 140.677 225.713 123.784 232.78 106.188C234.82 101.3 238.225 93.6164 249.11 97.1302L250.784 97.6708L328.689 126.981C335.67 129.697 337.668 134.965 335.37 142.081C328.857 159.393 321.654 177.408 314.722 194.585L343.067 205.584C347.672 207.071 350.088 212.473 348.467 217.497L321.009 285.367C319.239 289.418 314.673 292.105 310.068 290.618L309.231 290.348L282.007 280.173C269.709 318.268 265.407 348.775 281.259 362.675C285.188 366.255 289.671 369.551 288.185 374.156C287.914 374.993 287.09 376.114 286.266 377.235Z" fill="white"/>
</mask>
<g mask="url(#mask0_0_1)">
<path opacity="0.5" d="M41.4668 199.533L-11.7014 252.701C-36.5915 277.592 -34.8078 318.462 -7.84384 341.089L74.4034 410.108C81.3764 415.959 89.5892 420.147 98.4202 422.355L320.329 477.832C331.224 480.556 342.665 480.167 353.35 476.71L541.309 415.9C562.095 409.175 577.583 391.684 581.742 370.237L597.286 290.086C602.887 261.21 586.727 232.531 559.126 222.362L493 198L418.344 164.066C402.849 157.022 385.092 156.892 369.495 163.706L314.497 187.734C299.896 194.113 283.031 192.456 269.951 183.357C254.827 172.836 234.876 172.388 219.295 182.219L192.643 199.035C173.276 211.254 148.643 211.384 129.148 199.37L115.372 190.881C91.7071 176.296 61.123 179.877 41.4668 199.533Z" fill="#E78549"/>
<path opacity="0.76" d="M36.4668 227.533L-16.7014 280.701C-41.5915 305.592 -39.8078 346.462 -12.8438 369.089L69.4034 438.108C76.3764 443.959 84.5892 448.147 93.4202 450.355L315.329 505.832C326.224 508.556 337.665 508.167 348.35 504.71L536.309 443.9C557.095 437.175 572.583 419.684 576.742 398.237L592.286 318.086C597.887 289.21 581.727 260.531 554.126 250.362L488 226L413.344 192.066C397.849 185.022 380.092 184.892 364.495 191.706L309.497 215.734C294.896 222.113 278.031 220.456 264.951 211.357C249.827 200.836 229.876 200.388 214.295 210.219L187.643 227.035C168.276 239.254 143.643 239.384 124.148 227.37L110.372 218.881C86.7071 204.296 56.123 207.877 36.4668 227.533Z" fill="#E78549"/>
<path d="M42.4668 259.533L-10.7014 312.701C-35.5915 337.592 -33.8078 378.462 -6.84384 401.089L75.4034 470.108C82.3764 475.959 90.5892 480.147 99.4202 482.355L321.329 537.832C332.224 540.556 343.665 540.167 354.35 536.71L542.309 475.9C563.095 469.175 578.583 451.684 582.742 430.237L598.286 350.086C603.887 321.21 587.727 292.531 560.126 282.362L494 258L419.344 224.066C403.849 217.022 386.092 216.892 370.495 223.706L315.497 247.734C300.896 254.113 284.031 252.456 270.951 243.357C255.827 232.836 235.876 232.388 220.295 242.219L193.643 259.035C174.276 271.254 149.643 271.384 130.148 259.37L116.372 250.881C92.7071 236.296 62.123 239.877 42.4668 259.533Z" fill="#E78549"/>
</g>
</g>
<defs>
<clipPath id="clip0_0_1">
<rect width="495" height="495" fill="white"/>
</clipPath>
</defs>
</svg>
