<svg width="557" height="301" viewBox="0 0 557 301" fill="none" xmlns="http://www.w3.org/2000/svg">
<path d="M77.9708 69L64.5781 65.1735C64.1741 65.0581 63.7817 64.9054 63.4058 64.7175L62.2955 64.1623C62.082 64.0556 61.8465 64 61.6078 64C61.1999 64 60.8088 64.162 60.5204 64.4504L59.3567 65.6141C59.1 65.8708 58.8694 66.1521 58.6681 66.454L58.0896 67.3218C57.3467 68.4362 56.7462 69.6393 56.3022 70.9029L47.3022 96.5183C45.0892 102.817 43.6351 109.357 42.9708 116V120.933C42.9708 122.236 41.3123 122.789 40.5306 121.746C40.1935 121.297 39.614 121.102 39.0737 121.256L35.0816 122.397C33.8892 122.738 33.1581 123.937 33.4013 125.153L33.678 126.536C33.8295 127.293 33.2502 128 32.4778 128C32.1532 128 31.8418 128.129 31.6123 128.358L30.9856 128.985C29.823 130.148 29.6713 131.981 30.627 133.319L33.0007 136.642C33.5605 137.426 33.4716 138.499 32.7906 139.18C32.2846 139.686 32.0927 140.427 32.2893 141.115L33.5124 145.396C33.7623 146.27 34.6908 146.76 35.5537 146.472L37.5076 145.821C38.3123 145.553 39.0011 146.455 38.5306 147.16C38.2333 147.606 38.3941 148.212 38.8734 148.451L40.7459 149.388C41.517 149.773 42.4246 149.773 43.1957 149.388L43.9708 149C45.2298 148.37 46.7118 148.37 47.9708 149L54.1631 152.096C55.3437 152.686 56.3315 153.601 57.0106 154.733L57.3618 155.318C58.3639 156.989 58.4433 159.055 57.5722 160.797C57.1767 161.588 56.9708 162.46 56.9708 163.345V169.893C56.9708 171.96 57.1625 174.022 57.5434 176.054L58.0559 178.787C59.324 185.551 61.6856 192.062 65.0478 198.066L68.5244 204.274C72.1042 210.667 77.1494 216.119 83.2455 220.183L95.0957 228.083C96.9472 229.318 99.1887 229.826 101.392 229.511C103.689 229.183 105.773 227.984 107.211 226.162L118.024 212.466C119.274 210.883 121.084 209.841 123.081 209.556L124.677 209.328C126.121 209.121 127.578 209.607 128.609 210.638L129.78 211.809C130.491 212.52 130.667 213.607 130.218 214.507C130.055 214.831 129.971 215.189 129.971 215.552V216.45C129.971 217.769 131.177 218.759 132.471 218.5L133.157 218.363C134.095 218.175 134.971 218.893 134.971 219.85C134.971 219.95 134.961 220.049 134.941 220.147L134.106 224.326C134.021 224.747 134.153 225.182 134.457 225.486C134.776 225.805 135.239 225.933 135.676 225.824L137.612 225.34C138.5 225.118 139.432 225.154 140.299 225.443L140.628 225.552C141.511 225.847 142.314 226.343 142.972 227.001L143.156 227.185C143.696 227.725 144.319 228.174 145.001 228.515L146.019 229.024C147.261 229.645 148.708 229.705 149.996 229.19L151.269 228.681C152.302 228.268 153.48 228.51 154.267 229.296C155.244 230.274 156.793 230.384 157.899 229.554L158.232 229.304C159.239 228.549 159.562 227.182 158.999 226.056L158.866 225.79C158.355 224.767 158.685 223.524 159.636 222.89C160.436 222.357 161.485 222.386 162.254 222.962L163.065 223.57C164.158 224.391 165.689 224.282 166.656 223.315C166.864 223.106 167.038 222.865 167.17 222.601L167.302 222.337C167.716 221.51 167.654 220.525 167.142 219.757L166.626 218.982C166.245 218.411 166.32 217.651 166.806 217.165C166.915 217.056 167.041 216.965 167.18 216.895L167.644 216.663C169.588 215.692 170.596 213.5 170.069 211.391L169.971 211L168.971 207L168.675 206.113C168.231 204.78 168.427 203.316 169.206 202.147L169.314 201.985C169.742 201.343 169.971 200.588 169.971 199.817C169.971 198.135 171.047 196.641 172.643 196.109L175.189 195.261C175.709 195.087 176.208 194.859 176.679 194.578L183.077 190.77C203.021 178.899 228.682 183.71 242.971 202L243.99 203.088C246.824 206.111 251.095 207.322 255.094 206.238C255.678 206.079 256.247 205.874 256.798 205.624L266.971 201L281.971 195L287.474 191.855C288.463 191.29 289.55 190.917 290.677 190.756L293.151 190.403C294.89 190.154 296.626 190.874 297.68 192.279C298.501 193.374 298.817 194.767 298.549 196.109L297.971 199L296.671 204.851C296.205 206.944 295.971 209.082 295.971 211.226C295.971 213.071 296.145 214.912 296.49 216.725L299.388 231.94C299.776 233.977 300.327 235.979 301.035 237.927C302.969 243.244 306.044 248.073 310.045 252.074L319.189 261.218C321.039 263.068 323.067 264.731 325.244 266.182L329.193 268.815C330.369 269.599 331.672 270.175 333.044 270.518C336.779 271.452 340.735 270.588 343.742 268.183L343.971 268L346.203 266.405C349.325 264.176 351.792 261.151 353.35 257.646C354.421 255.236 355.927 253.044 357.792 251.179L361.971 247L368.971 238L371.807 234.597C373.13 233.009 375.245 232.319 377.25 232.82C377.728 232.939 378.188 233.124 378.616 233.369L382.18 235.405C383.956 236.42 386.08 236.63 388.02 235.984C389.903 235.356 391.443 233.978 392.274 232.176L396.971 222C397.557 220.828 397.259 219.407 396.253 218.569L394.2 216.858C392.788 215.681 391.971 213.937 391.971 212.098V210C391.971 208.736 392.545 207.54 393.533 206.751L394.861 205.688C396.227 204.595 397.924 204 399.672 204H401.657C403.188 204 404.708 204.263 406.15 204.778L413.92 207.553C416.611 208.514 419.406 209.159 422.246 209.475C425.383 209.824 428.462 210.574 431.408 211.706L435.918 213.441C438.611 214.477 441.413 215.206 444.27 215.614L446.655 215.955C446.865 215.985 447.077 216 447.29 216C449.43 216 451.273 214.489 451.693 212.391L451.971 211L462.936 167.14C463.609 164.447 465.103 162.029 467.211 160.223L469.214 158.506C470.348 157.534 471.791 157 473.284 157C473.741 157 474.196 157.05 474.641 157.149L481.485 158.67C482.462 158.887 483.476 158.874 484.447 158.631C486.066 158.226 487.465 157.209 488.35 155.794L491.676 150.471C491.871 150.16 492.008 149.815 492.08 149.455L492.383 147.939C492.663 146.538 494.276 145.87 495.465 146.663C495.795 146.883 496.182 147 496.579 147H499.471C500.299 147 500.971 146.328 500.971 145.5C500.971 145.175 500.866 144.86 500.671 144.6L498.764 142.058C498.237 141.355 497.796 140.592 497.45 139.784L495.471 135.168C495.149 134.415 495.114 133.571 495.373 132.795C495.744 131.681 496.672 130.844 497.818 130.59L500.86 129.913C503.461 129.336 505.663 127.617 506.854 125.234L509.301 120.34C509.747 119.448 510.258 118.59 510.83 117.772L516.971 109L522.971 99L524.815 96.5406C527.251 93.2932 527.136 88.7979 524.537 85.6795C524.16 85.2276 523.739 84.8149 523.28 84.4474L520.135 81.931C516.052 78.665 511.47 76.0786 506.564 74.2712L502.322 72.7083C497.434 70.9075 492.375 69.6106 487.223 68.8379L482.347 68.1064C477.436 67.3698 472.478 67 467.513 67H467.152C461.044 67 454.949 66.4404 448.943 65.3282L431.75 62.1444C431.232 62.0484 430.724 61.9014 430.235 61.7056C427.594 60.6492 424.591 61.0732 422.346 62.8194L417.68 66.4481C417.208 66.8151 416.701 67.1347 416.167 67.4021L413.358 68.8063C411.903 69.534 410.157 69.3491 408.886 68.3326C407.227 67.0046 404.834 67.1372 403.331 68.6403L401.971 70L400.437 71.5339C399.135 72.8355 396.983 72.6825 395.878 71.2099C395.307 70.4483 394.41 70 393.458 70H393.304C391.463 70 389.971 71.4924 389.971 73.3333V74.2426C389.971 75.3679 390.418 76.447 391.213 77.2426L393.376 79.4053C394.397 80.4264 394.971 81.8112 394.971 83.2552C394.971 84.39 394.616 85.4964 393.957 86.4198L393.458 87.1182C391.385 90.0199 387.662 91.2305 384.279 90.1029L362.971 83L339.765 74.2979C339.24 74.1009 338.683 74 338.122 74H337.581C336.559 74 335.588 73.5535 334.923 72.7778L331.754 69.0802C331.053 68.2628 331.634 67 332.711 67C333.407 67 333.971 66.4358 333.971 65.7398V60V57V54.0645C333.971 51.462 332.937 48.9662 331.097 47.126L330.957 46.9865C330.304 46.3331 329.76 45.5787 329.347 44.7522L328.515 43.0881C327.569 41.1955 325.634 40 323.518 40C322.506 40 321.512 40.2752 320.644 40.7961L316.971 43L316.143 43.5516C314.727 44.496 313.062 45 311.36 45C309.796 45 308.263 45.4248 306.922 46.229L305.052 47.3512C304.345 47.7757 303.535 48 302.71 48C302.22 48 301.734 48.0789 301.27 48.2337L298.527 49.1481C296.935 49.6787 295.724 50.9858 295.317 52.6136C295.091 53.5191 295.128 54.4703 295.423 55.3558L295.971 57L295.99 57.0971C296.642 60.3577 296.971 63.6748 296.971 67V69.6546C296.971 70.5319 296.711 71.3895 296.224 72.1194C294.591 74.5695 291.07 74.7821 289.153 72.5464L287.906 71.0914C287.312 70.3987 286.446 70 285.533 70C284.55 70 283.623 69.5369 283.033 68.7499L279.186 63.6199C278.379 62.5443 277.44 61.575 276.39 60.735L274.593 59.2981C273.515 58.4351 272.348 57.6885 271.112 57.0707L268.762 55.8955C267.584 55.3066 266.285 55 264.968 55C263.029 55 261.148 55.6648 259.639 56.8835L237.053 75.1263C236.337 75.7043 235.729 76.4036 235.255 77.1924L233.773 79.6622C233.275 80.4922 232.379 81 231.411 81C230.509 81 229.664 80.5585 229.149 79.818L213.971 58L208.153 51.3508C207.368 50.4542 206.469 49.6652 205.477 49.0044L205.38 48.9392C204.445 48.3159 203.431 47.8199 202.365 47.4646C199.528 46.5189 196.447 46.6094 193.671 47.7201L192.971 48L188.915 49.6223C188.291 49.8718 187.626 50 186.954 50C184.596 50 182.524 48.4371 181.877 46.1702L181.19 43.7679C181.044 43.2571 180.851 42.7609 180.614 42.2857L179.689 40.4373C178.559 38.1768 176.918 36.2105 174.896 34.6942L174.587 34.4621C174.177 34.1544 173.789 33.818 173.426 33.4555C171.829 31.8585 169.773 30.8004 167.545 30.4291L166.202 30.2053C165.383 30.0687 164.553 30 163.722 30H157.971C155.597 30 153.504 31.5573 152.821 33.8313L150.971 40L150.138 44.1644C149.518 47.263 146.323 49.1174 143.325 48.1181C143.089 48.0395 142.859 47.9442 142.637 47.833L140.613 46.821C138.192 45.6106 135.646 44.6688 133.02 44.0124L128.971 43L116.971 40L103.971 36L99.8051 34.3337C99.254 34.1133 98.6658 34 98.0722 34C97.3479 34 96.6335 34.1686 95.9856 34.4926L93.618 35.6764C93.2214 35.8747 92.9708 36.2801 92.9708 36.7236C92.9708 36.9054 92.9285 37.0846 92.8472 37.2472L90.7341 41.4735C90.226 42.4895 89.8006 43.5448 89.4617 44.629L84.9708 59L82.0515 67.0281C81.45 68.6823 79.6406 69.5566 77.9708 69Z" fill="black" stroke="black" stroke-width="60"/>
<path d="M453.71 215.853L404.033 204.218C401.085 203.354 399.204 200.668 400.069 197.72L430.654 67.9635C431.519 65.0157 434.45 63.2075 437.152 64L466.08 70.8833C480.57 70.5976 493.921 72.3788 506.203 75.981C514.556 78.4305 522.374 81.7906 529.485 85.7436C532.881 87.8069 533.779 90.2044 532.914 93.1522C532.626 94.1348 532.092 95.0454 531.487 96.2016L514.204 128.749C512.459 131.972 509.498 132.972 506.55 132.107C505.813 131.891 504.902 131.357 503.992 130.823C500.422 128.442 496.462 126.48 492.286 125.256C488.846 124.247 485.263 123.73 481.045 123.56L460.208 211.89L460.064 212.381C459.272 215.083 456.412 216.646 453.71 215.853Z" fill="#EE5252"/>
<path d="M375.877 240.168L353.956 267.318C350.611 271.401 347.675 273.201 343.993 272.111C343.257 271.893 342.52 271.675 341.857 271.211C304.662 251.656 297.311 225.985 314.471 163.518L296.352 157.085C293.724 156.04 292.242 152.932 293.041 150.232L308.051 110.356C309.096 107.729 311.959 106.174 314.905 107.046L330.324 112.679C333.577 103.496 337.047 93.5776 340.909 83.2405C342.027 80.3676 343.898 75.8491 350.28 77.7386L351.262 78.0294L397.002 93.9744C401.102 95.4553 402.339 98.4914 401.103 102.664C397.56 112.829 393.626 123.411 389.837 133.503L406.484 139.499C409.184 140.299 410.666 143.407 409.794 146.353L394.784 186.229C393.812 188.611 391.194 190.238 388.494 189.439L388.003 189.294L372.02 183.761C365.407 206.098 363.338 223.907 372.757 231.769C375.094 233.796 377.749 235.65 376.95 238.35C376.804 238.841 376.341 239.505 375.877 240.168Z" fill="#EE5252"/>
<path d="M304.199 187.672L265.614 205.012C262.432 206.609 260.082 207.23 258.036 207.1C255.48 206.936 253.261 205.509 250.645 202.255L226.977 170.91C214.101 179.603 199.962 187.959 189.55 194.238C186.624 195.852 184.241 196.986 181.684 196.822C180.15 196.724 178.394 196.098 176.702 194.447L148.089 168.186C145.424 165.701 144.293 163.314 144.424 161.265C144.539 159.472 145.42 157.728 147.58 156.066C156.763 148.937 174.296 135.654 190.28 122.529L158.814 80.6551C156.916 78.2192 156.279 76.121 156.394 74.328C156.558 71.7665 158.75 69.5919 161.916 68.2509L201.795 50.7371C203.906 49.8431 205.728 49.4451 207.518 49.5594C210.841 49.7717 213.795 51.7606 215.916 54.7252L238.626 84.9808L266.931 59.7837C268.836 58.1049 270.707 56.9385 273.008 57.0855C275.053 57.2161 277.288 58.3876 279.953 60.8725L311.742 89.6505C313.929 91.5904 314.853 93.1926 314.739 94.9856C314.183 103.695 282.151 130.968 276.727 135.509L307.268 175.78C308.927 177.944 309.58 179.786 309.465 181.579C309.301 184.14 307.365 186.331 304.199 187.672Z" fill="#EE5252"/>
<path d="M138.859 197.982L117.869 225.859C114.665 230.052 111.792 231.951 108.075 230.986C107.332 230.793 106.588 230.601 105.909 230.16C68.0735 211.875 59.8573 186.468 74.891 123.456L56.5642 117.641C53.9028 116.686 52.3159 113.629 53.0234 110.903L66.6738 70.5421C67.6291 67.8807 70.438 66.2295 73.4115 67.0013L89.0127 72.1089C91.9524 62.8216 95.085 52.7909 98.5941 42.3289C99.6137 39.4198 101.331 34.8404 107.774 36.5127L108.765 36.77L155.018 51.1563C159.166 52.4975 160.505 55.49 159.412 59.7024C156.215 69.9808 152.642 80.6906 149.197 90.9047L166.037 96.3339C168.763 97.0414 170.35 100.098 169.578 103.072L155.927 143.433C155.036 145.846 152.475 147.562 149.749 146.854L149.254 146.726L133.093 141.737C127.24 164.286 125.775 182.155 135.456 189.693C137.86 191.64 140.576 193.403 139.869 196.128C139.74 196.624 139.299 197.303 138.859 197.982Z" fill="#EE5252"/>
<mask id="mask0_5_371" style="mask-type:alpha" maskUnits="userSpaceOnUse" x="52" y="36" width="482" height="237">
<path d="M453.71 215.853L404.033 204.218C401.085 203.354 399.204 200.668 400.069 197.72L430.654 67.9635C431.519 65.0157 434.45 63.2075 437.152 64L466.08 70.8833C480.57 70.5976 493.921 72.3788 506.203 75.981C514.556 78.4305 522.374 81.7906 529.485 85.7436C532.881 87.8069 533.779 90.2044 532.914 93.1522C532.626 94.1348 532.092 95.0454 531.487 96.2016L514.204 128.749C512.459 131.972 509.498 132.972 506.55 132.107C505.813 131.891 504.902 131.357 503.992 130.823C500.422 128.442 496.462 126.48 492.286 125.256C488.846 124.247 485.263 123.73 481.045 123.56L460.208 211.89L460.064 212.381C459.272 215.083 456.412 216.646 453.71 215.853Z" fill="#EE5252"/>
<path d="M375.877 240.168L353.956 267.318C350.611 271.401 347.675 273.201 343.993 272.111C343.257 271.893 342.52 271.675 341.857 271.211C304.662 251.656 297.311 225.985 314.471 163.518L296.352 157.085C293.724 156.04 292.242 152.932 293.041 150.232L308.051 110.356C309.096 107.729 311.959 106.174 314.905 107.046L330.324 112.679C333.577 103.496 337.047 93.5776 340.909 83.2405C342.027 80.3676 343.898 75.8491 350.28 77.7386L351.262 78.0294L397.002 93.9744C401.102 95.4553 402.339 98.4914 401.103 102.664C397.56 112.829 393.626 123.411 389.837 133.503L406.484 139.499C409.184 140.299 410.666 143.407 409.794 146.353L394.784 186.229C393.812 188.611 391.194 190.238 388.494 189.439L388.003 189.294L372.02 183.761C365.407 206.098 363.338 223.907 372.757 231.769C375.094 233.796 377.749 235.65 376.95 238.35C376.804 238.841 376.341 239.505 375.877 240.168Z" fill="#EE5252"/>
<path d="M304.199 187.672L265.614 205.012C262.432 206.609 260.082 207.23 258.036 207.1C255.48 206.936 253.261 205.509 250.645 202.255L226.977 170.91C214.101 179.603 199.962 187.959 189.55 194.238C186.624 195.852 184.241 196.986 181.684 196.822C180.15 196.724 178.394 196.098 176.702 194.447L148.089 168.186C145.424 165.701 144.293 163.314 144.424 161.265C144.539 159.472 145.42 157.728 147.58 156.066C156.763 148.937 174.296 135.654 190.28 122.529L158.814 80.6551C156.916 78.2192 156.279 76.121 156.394 74.328C156.558 71.7665 158.75 69.5919 161.916 68.2509L201.795 50.7371C203.906 49.8431 205.728 49.4451 207.518 49.5594C210.841 49.7717 213.795 51.7606 215.916 54.7252L238.626 84.9808L266.931 59.7837C268.836 58.1049 270.707 56.9385 273.008 57.0855C275.053 57.2161 277.288 58.3876 279.953 60.8725L311.742 89.6505C313.929 91.5904 314.853 93.1926 314.739 94.9856C314.183 103.695 282.151 130.968 276.727 135.509L307.268 175.78C308.927 177.944 309.58 179.786 309.465 181.579C309.301 184.14 307.365 186.331 304.199 187.672Z" fill="#EE5252"/>
<path d="M138.859 197.982L117.869 225.859C114.665 230.052 111.792 231.951 108.075 230.986C107.332 230.793 106.588 230.601 105.909 230.16C68.0735 211.875 59.8573 186.468 74.891 123.456L56.5642 117.641C53.9028 116.686 52.3159 113.629 53.0234 110.903L66.6738 70.5421C67.6291 67.8807 70.438 66.2295 73.4115 67.0013L89.0127 72.1089C91.9524 62.8216 95.085 52.7909 98.5941 42.3289C99.6137 39.4198 101.331 34.8404 107.774 36.5127L108.765 36.77L155.018 51.1563C159.166 52.4975 160.505 55.49 159.412 59.7024C156.215 69.9808 152.642 80.6906 149.197 90.9047L166.037 96.3339C168.763 97.0414 170.35 100.098 169.578 103.072L155.927 143.433C155.036 145.846 152.475 147.562 149.749 146.854L149.254 146.726L133.093 141.737C127.24 164.286 125.775 182.155 135.456 189.693C137.86 191.64 140.576 193.403 139.869 196.128C139.74 196.624 139.299 197.303 138.859 197.982Z" fill="#EE5252"/>
</mask>
<g mask="url(#mask0_5_371)">
<path opacity="0.5" d="M67.7398 97.7782L56.6913 106.301C38.0992 120.644 12.6936 122.361 -7.65952 110.651L-47.0292 88C-73.2463 72.9162 -104.41 97.664 -95.6568 126.616L-81.0292 175L-52.7493 268.541C-46.2123 290.164 -27.6949 306.032 -5.32515 309.17C172.543 334.125 295.576 349.835 470.407 369.386C495.212 372.16 519.015 358.712 529.461 336.043L577.411 231.981C592.379 199.498 574.667 161.342 540.196 151.807L519.729 146.146C514.582 144.722 509.655 142.594 505.09 139.823L426.765 92.2678C410.045 82.1165 389.335 81.0764 371.682 89.5016L342.577 103.392C323.712 112.396 301.434 110.37 284.503 98.1094C265.984 84.6996 241.252 83.6314 221.646 95.3947L210.682 101.973C194.001 111.982 173.414 112.962 155.859 104.583L128.149 91.3577C108.412 81.938 85.0554 84.4205 67.7398 97.7782Z" fill="#E78549"/>
<path d="M75.7398 159.778L64.6913 168.301C46.0992 182.644 20.6936 184.361 0.340477 172.651L-39.0292 150C-65.2463 134.916 -96.4099 159.664 -87.6568 188.616L-73.0292 237L-44.7493 330.541C-38.2123 352.164 -19.6949 368.032 2.67485 371.17C180.543 396.125 303.576 411.835 478.407 431.386C503.212 434.16 527.015 420.712 537.461 398.043L585.411 293.981C600.379 261.498 582.667 223.342 548.196 213.807L527.729 208.146C522.582 206.722 517.655 204.594 513.09 201.823L434.765 154.268C418.045 144.116 397.335 143.076 379.682 151.502L350.577 165.392C331.712 174.396 309.434 172.37 292.503 160.109C273.984 146.7 249.252 145.631 229.646 157.395L218.682 163.973C202.001 173.982 181.414 174.962 163.859 166.583L136.149 153.358C116.412 143.938 93.0554 146.42 75.7398 159.778Z" fill="#E78549"/>
<path opacity="0.75" d="M75.7398 133.778L64.6913 142.301C46.0992 156.644 20.6936 158.361 0.340477 146.651L-39.0292 124C-65.2463 108.916 -96.4099 133.664 -87.6568 162.616L-73.0292 211L-44.7493 304.541C-38.2123 326.164 -19.6949 342.032 2.67485 345.17C180.543 370.125 303.576 385.835 478.407 405.386C503.212 408.16 527.015 394.712 537.461 372.043L585.411 267.981C600.379 235.498 582.667 197.342 548.196 187.807L527.729 182.146C522.582 180.722 517.655 178.594 513.09 175.823L434.765 128.268C418.045 118.116 397.335 117.076 379.682 125.502L350.577 139.392C331.712 148.396 309.434 146.37 292.503 134.109C273.984 120.7 249.252 119.631 229.646 131.395L218.682 137.973C202.001 147.982 181.414 148.962 163.859 140.583L136.149 127.358C116.412 117.938 93.0554 120.42 75.7398 133.778Z" fill="#E78549"/>
</g>
<g clip-path="url(#clip0_5_371)">
<path d="M143.165 199.837L146.06 203.913M151.317 194.046L154.213 198.122M161.503 225.653L164.399 229.729M169.656 219.862L172.551 223.938M165.832 200.09L169.909 197.194M170.658 206.883L174.735 203.988M140.016 218.428L144.092 215.533M144.842 225.222L148.918 222.326M141.984 206.808L158.289 195.226C159.79 194.16 161.871 194.512 162.937 196.013L174.519 212.318C175.585 213.819 175.233 215.9 173.732 216.966L157.427 228.548C155.926 229.614 153.845 229.262 152.779 227.761L141.197 211.456C140.131 209.956 140.483 207.875 141.984 206.808ZM150.886 210.707L159.039 204.915L164.83 213.068L156.677 218.859L150.886 210.707Z" stroke="#E78549" stroke-width="3.33333" stroke-linecap="round" stroke-linejoin="round"/>
</g>
<g clip-path="url(#clip1_5_371)">
<path d="M322.91 79.45C314.838 85.0641 312.551 78.8274 308.693 79.358M337.126 79.5421L334.913 73.5081C334.707 72.7401 334.318 72.0349 333.771 71.4394C333.224 70.8439 332.533 70.3718 331.742 70.0545C337.149 67.4519 342.362 63.4347 339.239 54.9217C338.44 52.745 336.713 51.0035 334.415 50.0575C334.531 47.8543 333.701 45.7703 332.099 44.2384C332.099 44.2384 329.791 44.4656 325.962 49.1072C321.514 49.6401 317.199 51.2228 313.462 53.6927C307.54 52.6277 305.633 53.9464 305.633 53.9464C305.401 56.1513 306.115 58.2775 307.628 59.8834C306.479 62.107 306.293 64.5715 307.111 66.7596C310.211 75.2103 316.785 74.904 322.615 73.4552C322.222 74.2007 322.001 74.9991 321.966 75.7983C321.931 76.5974 322.083 77.3795 322.412 78.0935L324.625 84.1275" stroke="#EE5252" stroke-width="3.94078" stroke-linecap="round" stroke-linejoin="round"/>
</g>
<g clip-path="url(#clip2_5_371)">
<path d="M165.793 43.135C168.939 42.5814 172.176 43.3002 174.792 45.1331C177.407 46.9661 179.188 49.7631 179.742 52.9088M164.17 33.9097C169.762 32.9256 175.517 34.2034 180.167 37.462C184.817 40.7206 187.983 45.6931 188.967 51.2855M170.284 53.2143C170.412 53.9421 169.926 54.636 169.198 54.7641C168.471 54.8922 167.777 54.406 167.649 53.6781C167.52 52.9503 168.007 52.2564 168.735 52.1283C169.462 52.0002 170.156 52.4864 170.284 53.2143Z" stroke="#EE5252" stroke-width="2.67628" stroke-linecap="round" stroke-linejoin="round"/>
</g>
<g clip-path="url(#clip3_5_371)">
<path d="M379.353 218.849L378.165 218.244C377.535 217.924 377.058 217.366 376.839 216.693C376.62 216.021 376.677 215.289 376.997 214.658L382.438 203.963C382.759 203.332 383.317 202.855 383.989 202.636C384.662 202.417 385.393 202.474 386.024 202.795L396.72 208.236C397.35 208.556 397.827 209.114 398.046 209.787C398.265 210.459 398.208 211.191 397.887 211.821L397.283 213.01M390.111 215.345L400.807 220.786C402.12 221.454 402.642 223.059 401.975 224.372L396.534 235.068C395.866 236.38 394.261 236.903 392.948 236.236L382.252 230.795C380.94 230.127 380.417 228.522 381.085 227.209L386.525 216.513C387.193 215.201 388.798 214.678 390.111 215.345Z" stroke="#E78549" stroke-width="3.2" stroke-linecap="round" stroke-linejoin="round"/>
</g>
<g clip-path="url(#clip4_5_371)">
<path d="M491.535 143.399L500.476 138.843M500.476 138.843L506.049 147.187M500.476 138.843L496.435 154.324C496.078 155.693 495.124 156.846 493.782 157.529C492.441 158.213 490.823 158.371 489.283 157.969L479.123 155.318" stroke="#EE5252" stroke-width="3.2" stroke-linecap="round" stroke-linejoin="round"/>
</g>
<mask id="mask1_5_371" style="mask-type:alpha" maskUnits="userSpaceOnUse" x="471" y="128" width="44" height="41">
<g clip-path="url(#clip5_5_371)">
<path d="M491.535 143.399L500.476 138.843M500.476 138.843L506.049 147.187M500.476 138.843L496.435 154.324C496.078 155.693 495.124 156.846 493.782 157.529C492.441 158.213 490.823 158.371 489.283 157.969L479.123 155.318" stroke="#EE5252" stroke-width="3.2" stroke-linecap="round" stroke-linejoin="round"/>
</g>
</mask>
<g mask="url(#mask1_5_371)">
<path opacity="0.75" d="M487.31 148.54L495.59 150.451C497.141 150.808 498.546 151.628 499.622 152.801C503.746 157.3 501.401 164.577 495.426 165.822L487.468 167.48C485.82 167.823 484.12 167.83 482.47 167.5L477.435 166.493C473.095 165.625 469.971 161.814 469.971 157.388C469.971 154.056 471.756 150.98 474.649 149.327L474.773 149.256C476.213 148.433 477.843 148 479.502 148H482.57C484.165 148 485.756 148.181 487.31 148.54Z" fill="#E78549"/>
</g>
<g clip-path="url(#clip6_5_371)">
<path d="M42.9482 144.919L54.4913 126.978M49.676 149.248L61.2191 131.307M40.5491 133.862L59.2895 149.091M44.8778 127.135L63.6182 142.363" stroke="#EA6C4D" stroke-width="3.2" stroke-linecap="round" stroke-linejoin="round"/>
</g>
<mask id="mask2_5_371" style="mask-type:alpha" maskUnits="userSpaceOnUse" x="29" y="116" width="46" height="45">
<g clip-path="url(#clip7_5_371)">
<path d="M42.9482 144.919L54.4913 126.978M49.676 149.248L61.2191 131.307M40.5491 133.862L59.2895 149.091M44.8778 127.135L63.6182 142.363" stroke="#EA6C4D" stroke-width="3.2" stroke-linecap="round" stroke-linejoin="round"/>
</g>
</mask>
<g mask="url(#mask2_5_371)">
<path opacity="0.8" d="M41.9708 139L39.773 140.209C30.9436 145.065 29.3581 157.092 36.6273 164.07C42.4069 169.619 51.5347 169.619 57.3143 164.07L62.5464 159.047C67.8142 153.99 68.1586 145.68 63.3272 140.204C59.5157 135.884 53.3994 134.429 48.0506 136.568L41.9708 139Z" fill="#E87F49"/>
</g>
<path d="M416.791 72.192L404.098 92.0131M400.322 75.6199L420.568 88.5851" stroke="#EE5252" stroke-width="3.2" stroke-linecap="round" stroke-linejoin="round"/>
<mask id="mask3_5_371" style="mask-type:alpha" maskUnits="userSpaceOnUse" x="382" y="54" width="57" height="57">
<path d="M416.791 72.192L404.098 92.0131M400.322 75.6199L420.568 88.5852" stroke="#EE5252" stroke-width="3.2" stroke-linecap="round" stroke-linejoin="round"/>
</mask>
<g mask="url(#mask3_5_371)">
<path d="M409.332 82.3035L408.101 82.5314C400.967 83.8527 399.926 93.648 406.624 96.4389C407.513 96.8093 408.467 97 409.43 97H419.76C421.766 97 423.639 95.9974 424.752 94.3282C426.096 92.3128 426.096 89.6872 424.752 87.6718L424.439 87.2023C423.494 85.7852 422.055 84.7711 420.403 84.3581L412.588 82.4043C411.522 82.1379 410.412 82.1035 409.332 82.3035Z" fill="#EA6C4D" fill-opacity="0.75"/>
</g>
<defs>
<clipPath id="clip0_5_371">
<rect width="40" height="40" fill="white" transform="translate(129.971 207.165) rotate(-35.3883)"/>
</clipPath>
<clipPath id="clip1_5_371">
<rect width="45.6524" height="39.8579" fill="white" transform="translate(295.971 55.7215) rotate(-20.1436)"/>
</clipPath>
<clipPath id="clip2_5_371">
<rect width="32.1154" height="32.1154" fill="white" transform="translate(157.971 29.5658) rotate(-9.98003)"/>
</clipPath>
<clipPath id="clip3_5_371">
<rect width="32" height="32" fill="white" transform="translate(382.479 198) rotate(26.9614)"/>
</clipPath>
<clipPath id="clip4_5_371">
<rect width="36" height="32" fill="white" transform="translate(480.052 128) rotate(14.628)"/>
</clipPath>
<clipPath id="clip5_5_371">
<rect width="36" height="32" fill="white" transform="translate(480.052 128) rotate(14.628)"/>
</clipPath>
<clipPath id="clip6_5_371">
<rect width="32" height="32" fill="white" transform="translate(29.9708 142.911) rotate(-57.2426)"/>
</clipPath>
<clipPath id="clip7_5_371">
<rect width="32" height="32" fill="white" transform="translate(29.9708 142.911) rotate(-57.2426)"/>
</clipPath>
</defs>
</svg>
